PathFileType	4	(X/Y/Z)	C:\Users\WrightLab\Desktop\Jo\P4V113.trc
DataRate	CameraRate	NumFrames	NumMarkers	Units	OrigDataRate	OrigDataStartFrame	OrigNumFrames
100.00	100.00	       18	19	mm	100.00	213	       567
Frame#	Time	Headset_Front			Headset_Back			Headset_Left			Headset_Right			Left_Shoulder			Right_Shoulder			Sternum			C7			Left Elbow			Right Elbow			Left Wrist			Right Wrist			Left ASIS			Right ASIS			S2			Left Knee			Right Knee			Left Ankle			Right Ankle			
		X1	Y1	Z1	X2	Y2	Z2	X3	Y3	Z3	X4	Y4	Z4	X5	Y5	Z5	X6	Y6	Z6	X7	Y7	Z7	X8	Y8	Z8	X9	Y9	Z9	X10	Y10	Z10	X11	Y11	Z11	X12	Y12	Z12	X13	Y13	Z13	X14	Y14	Z14	X15	Y15	Z15	X16	Y16	Z16	X17	Y17	Z17	X18	Y18	Z18	X19	Y19	Z19	

213	2.120	-32.53980	1636.37170	586.30353							-168.30200	1678.51892	533.26935	-30.69395	1490.22705	278.83984	-258.79599	1518.13831	481.84738	-68.59128	1437.10681	455.99374	-178.09834	1538.08386	340.19046	44.60649	1140.74780	155.47684	-392.52155	1192.63501	607.43579	150.20891	873.07050	279.41434	-267.09570	951.89569	750.88910	-4.68045	1014.31818	364.05457	-254.92178	1006.19342	588.88989	-236.52907	1030.83020	318.85950	111.94685	584.38019	465.38141	-326.58453	532.49347	473.97574	232.22707	90.06001	549.34454	-450.35776	77.28986	262.46838	
214	2.130	-27.00847	1634.50659	595.50055							-162.82310	1676.29163	542.11902	-23.32188	1487.64331	288.58713	-252.02089	1515.81421	490.64862	-60.75107	1435.52527	465.69327	-171.00166	1535.25146	349.03525	51.53276	1139.08081	162.61557	-385.04446	1189.88818	617.01416	157.49409	869.98627	282.85773	-257.97821	950.42950	761.67865	4.58724	1011.87897	374.88831	-246.86978	1003.58435	597.96899	-226.60539	1028.33130	327.53967	122.67434	581.81897	472.22348	-321.04437	530.84424	479.38022	246.13922	87.36064	561.67517	-449.08405	80.05956	262.93631	
215	2.140	-19.86731	1632.69275	604.21997							-155.97876	1674.15710	550.52832	-16.03939	1485.21033	296.23746	-245.60504	1513.12036	499.16614	-53.89095	1432.53223	473.93628	-163.55609	1532.83325	357.70584	58.31344	1136.97058	170.21695	-377.16672	1186.87122	626.19928	165.09193	866.30682	287.40665	-249.12962	948.43756	771.34265	13.93722	1009.70337	385.80563	-238.33322	1001.01123	607.58722	-215.99637	1026.34656	335.91507	133.95078	579.07715	478.78964	-314.15048	529.13025	485.45071	255.96445	83.89609	571.00537	-448.34979	82.64993	264.24634	
216	2.150	-13.01795	1630.95508	613.27374							-148.72533	1671.66138	558.90521	-9.05730	1482.65259	305.33539	-238.74939	1510.43188	507.61670	-46.61251	1431.20068	483.76953	-156.31398	1530.27063	366.59665	65.64291	1135.19067	178.00958	-368.89221	1183.58716	635.46698	173.15413	863.45129	291.69727	-240.83200	946.76270	781.44946	23.18870	1007.58917	396.06168	-230.64117	999.01984	619.11987	-205.98268	1023.74915	344.64792	145.40656	576.91064	486.22977	-307.92371	528.00671	493.09967	263.84076	79.62051	578.08234	-447.16611	85.68507	264.97015	
217	2.160	-6.80707	1629.73779	622.41302							-142.14915	1670.20154	567.39325	-1.20553	1479.99756	315.21136	-231.98557	1508.14185	516.27881	-38.88445	1430.17517	493.58545	-148.63104	1528.27405	375.33002	72.75573	1133.20496	186.09700	-361.10477	1180.99927	643.25842	179.74744	860.16510	296.25540	-232.59250	944.96783	791.03638	35.24680	1007.37067	406.02979	-220.96570	996.69110	628.07581	-195.35144	1021.95056	354.38419	156.91449	575.28192	495.48413	-300.27750	526.35724	500.04919	269.34747	75.37039	582.39764	-445.85880	89.45323	265.79395	
218	2.170	-1.20935	1628.67920	631.92358							-136.36336	1668.17053	576.32172	7.25092	1478.73633	324.56415	-224.90437	1506.06165	524.76538	-31.73925	1428.42297	503.10614	-141.25464	1526.00793	384.24915	80.46857	1132.05469	194.85721	-353.08075	1178.25500	652.36450	186.50885	857.19214	301.24106	-224.47046	943.09326	800.78870	44.39874	1006.08807	416.12924	-211.82574	994.11322	636.64789	-184.86244	1020.08771	364.00565	167.73253	573.54510	505.57767	-291.89063	525.90497	508.65735	273.68204	71.84866	584.98315	-444.32343	93.48650	267.12555	
219	2.180	5.15145	1627.91260	640.95569							-129.74527	1666.96997	584.80450	14.98589	1477.21350	334.47748	-217.58904	1504.02332	533.31555	-23.29112	1427.39563	511.78607	-133.62267	1524.18591	392.83362	88.41705	1130.96594	203.01309	-345.05804	1176.00977	660.39789	193.69873	853.73798	305.85312	-216.37743	940.85229	810.22253	55.65371	1006.41010	425.70810	-200.80577	991.59668	646.85522	-174.39409	1017.95844	374.92297	178.55421	571.86169	516.35181	-283.56070	524.90527	516.45288	276.29889	69.37409	585.94800	-442.31537	98.41013	269.27731	
220	2.190	11.86473	1626.74646	650.22595							-123.43073	1665.57776	593.50482	22.29461	1476.57129	342.70770	-210.41676	1502.09326	541.87463	-16.33699	1425.64990	520.39850	-126.39966	1522.35339	401.87741	96.48527	1129.45581	212.08205	-336.80106	1173.40967	668.56433	201.75829	852.14594	312.38675	-208.76549	938.94434	819.45880	66.73739	1005.65607	436.59375	-189.02213	990.51959	658.21454	-163.40755	1016.13074	385.23206	189.00868	570.61853	527.72064	-274.59100	523.93463	524.86566	279.20615	67.25095	587.43292	-440.37552	103.53636	270.58481	
221	2.200	18.43078	1625.96301	659.05682							-117.29760	1664.40442	602.15857	29.69325	1475.44080	351.34967	-203.11462	1500.16260	550.68512	-7.97148	1426.05286	530.25366	-118.96344	1520.55554	410.54193	104.11492	1128.89978	220.85468	-328.73343	1171.25195	676.68494	207.87358	848.71600	317.39365	-200.82034	936.34631	828.19733	77.83980	1005.48523	446.30484	-178.65797	988.84705	669.21924	-152.94537	1015.29486	394.53207	199.57111	569.96710	538.22711	-265.98465	524.22913	534.45978	281.44000	66.68069	589.57892	-437.13431	109.53278	273.10864	
222	2.210	24.93787	1624.96643	668.41296							-109.52083	1663.10181	610.46350	37.79642	1475.01550	360.31570	-195.70943	1498.88342	559.01196	-0.24349	1425.94568	539.53186	-111.56940	1519.47473	419.33850	112.16717	1128.10974	230.62294	-320.78705	1169.11401	685.01685	216.77405	848.09583	324.75723	-193.99071	934.04596	836.13550	86.74800	1007.03369	456.72934	-167.88211	986.97974	678.08417	-142.18396	1014.88989	404.68979	210.28795	570.74341	548.04773	-256.81317	524.11389	544.95819	283.78006	67.07823	591.77838	-433.63669	116.15224	275.73291	
223	2.220	30.50351	1625.40356	677.73822							-103.73689	1663.00879	619.24902	45.88278	1475.04468	369.22186	-188.41321	1497.81299	567.71674	8.95437	1426.72827	549.71918	-103.87802	1519.07104	427.99509	120.65247	1127.51367	240.36113	-312.70291	1167.49072	692.03802	223.77286	845.68195	331.39633	-187.73537	932.09601	844.55219	96.63589	1006.97699	465.57541	-156.28278	987.46100	689.80298	-132.17847	1014.39014	415.25003	222.17232	571.85309	556.97614	-246.59608	524.10242	556.00256	286.27844	66.73814	594.13818	-429.24326	123.30563	279.22458	
224	2.230	36.53809	1626.00085	687.27704							-97.36790	1662.69934	628.21631	53.85218	1475.60474	377.56805	-180.77451	1497.31641	576.50861	16.21573	1427.58240	557.23077	-95.73544	1519.31885	436.80695	129.07622	1128.21216	249.87599	-303.35059	1165.23804	699.55322	230.51784	844.10583	337.91907	-180.63614	929.95508	852.84387	107.52956	1008.94470	475.79395	-144.94159	985.98499	699.03064	-121.46939	1015.04889	426.01062	233.77858	572.69611	565.91010	-235.12535	524.74609	568.39410	287.81726	67.01521	594.91510	-423.53101	131.51616	282.83481	
225	2.240	43.92773	1626.35046	696.43524							-91.50224	1663.60120	637.04419	62.00277	1476.93286	386.44836	-173.10545	1497.50964	584.89417	25.14230	1429.31006	566.45770	-87.84689	1520.09619	445.82516	137.51765	1128.26184	259.93103	-295.30753	1165.03894	708.18036	237.88449	843.98376	346.16339	-174.74016	927.82605	860.67920	117.28004	1010.28247	485.26001	-134.32567	985.21887	706.99597	-111.85966	1016.22015	435.34708	245.51639	574.06189	575.63025	-222.05272	524.84613	581.82953	289.95908	67.39685	596.91901	-417.06076	140.34294	286.99509	
226	2.250	49.66760	1627.80334	706.17090							-85.25220	1664.42554	645.75940	69.82233	1478.32288	395.08493	-165.62291	1497.90723	593.60071	32.47247	1430.54541	574.55450	-79.51607	1521.05151	454.28574	146.35942	1129.96326	270.89072	-285.99951	1165.14453	715.59656	245.78850	843.91809	355.00906	-167.67169	926.08929	867.83765	128.22191	1013.25031	494.75699	-123.55968	985.94586	716.42987	-102.08442	1016.33093	446.52319	256.58096	575.93799	586.39142	-207.99750	523.67987	596.54913	290.90488	67.90487	596.65479	-408.64359	150.54279	293.00485	
227	2.260	55.45825	1629.50513	715.79724							-78.88231	1665.41443	654.44110	77.44292	1479.95752	404.19730	-157.58321	1499.27417	602.32800	41.51016	1433.24194	585.08618	-71.73840	1522.46301	463.45398	154.94679	1131.20105	281.05209	-276.95328	1165.66223	723.19513	253.11694	844.52545	363.31128	-161.75450	925.00586	875.02155	136.97824	1015.23700	503.57712	-113.63106	986.56549	725.03479	-92.32806	1017.97369	455.70288	266.80765	577.54895	596.18250	-193.21442	522.27069	612.51068	291.86649	68.23363	598.46021	-399.48898	162.14410	299.25247	
228	2.270	61.32607	1631.44543	725.66547							-72.42287	1666.71704	663.28827	85.35473	1482.49585	412.58749	-149.61134	1500.62939	611.48602	49.36278	1435.48267	593.78381	-63.86697	1523.79871	472.51743	163.75925	1133.32397	292.12073	-268.08505	1166.40198	731.76465	261.44775	846.01758	372.95145	-155.57828	923.96228	881.67303	147.29713	1017.96783	512.89771	-104.03396	988.27490	734.94281	-83.17900	1017.80743	466.79837	276.42841	578.73737	605.70612	-177.38733	519.63208	629.86554	292.95129	68.66523	599.45313	-388.54404	174.47368	305.79330	
229	2.280	67.15542	1633.34546	735.48071							-65.97814	1668.33850	672.10565	93.37957	1485.17297	421.96051	-142.00993	1502.75146	620.22363	57.49450	1437.29883	602.99982	-55.84239	1525.46326	481.39172	172.61032	1135.99451	302.07736	-259.07913	1168.20972	738.65491	269.20459	847.05505	382.64804	-149.87390	922.39667	887.64691	156.99878	1019.83130	522.11505	-94.71510	989.10883	742.73694	-74.12360	1020.15973	474.10577	284.97824	580.02954	615.29553	-161.34184	517.05676	647.39990	292.60214	69.27542	599.98224	-375.50729	187.80882	314.44958	
230	2.290	73.00925	1635.38635	745.29791							-59.26463	1670.10950	680.96301	101.62937	1487.45361	431.15411	-133.85016	1504.83435	628.74518	65.34070	1440.14758	610.85272	-47.76429	1527.86389	490.51291	181.46387	1138.45898	312.82455	-251.26155	1170.11255	746.13586	277.19998	849.46271	393.57962	-144.20851	921.97205	894.35315	165.71996	1022.69257	531.24042	-86.12662	990.93719	752.39929	-65.66811	1020.63879	483.81418	292.84882	580.46832	622.72003	-144.70398	514.84845	666.18115	292.48251	69.89883	600.51001	-360.48309	202.24904	323.97791	
